<mxfile host="Electron" agent="Mozilla/5.0 (Windows NT 10.0; Win64; x64) AppleWebKit/537.36 (KHTML, like Gecko) draw.io/24.7.17 Chrome/128.0.6613.36 Electron/32.0.1 Safari/537.36" version="24.7.17">
  <diagram name="Page-1" id="uYNhRAzuao4IiOwPMIUJ">
    <mxGraphModel dx="2514" dy="1040" grid="1" gridSize="10" guides="1" tooltips="1" connect="1" arrows="1" fold="1" page="1" pageScale="1" pageWidth="827" pageHeight="1169" math="0" shadow="0">
      <root>
        <mxCell id="0" />
        <mxCell id="1" parent="0" />
        <mxCell id="5hojF6ijiYVzlCGnurFn-96" style="edgeStyle=none;shape=connector;rounded=0;orthogonalLoop=1;jettySize=auto;html=1;exitX=0.5;exitY=1;exitDx=0;exitDy=0;entryX=0.5;entryY=0;entryDx=0;entryDy=0;strokeColor=default;align=center;verticalAlign=middle;fontFamily=Helvetica;fontSize=11;fontColor=default;labelBackgroundColor=default;endArrow=block;endFill=1;" parent="1" source="5hojF6ijiYVzlCGnurFn-1" target="5hojF6ijiYVzlCGnurFn-70" edge="1">
          <mxGeometry relative="1" as="geometry" />
        </mxCell>
        <mxCell id="5hojF6ijiYVzlCGnurFn-1" value="" style="rounded=0;whiteSpace=wrap;html=1;" parent="1" vertex="1">
          <mxGeometry x="-50" y="860" width="180" height="300" as="geometry" />
        </mxCell>
        <mxCell id="5hojF6ijiYVzlCGnurFn-95" style="edgeStyle=none;shape=connector;rounded=0;orthogonalLoop=1;jettySize=auto;html=1;exitX=0.5;exitY=1;exitDx=0;exitDy=0;entryX=0.5;entryY=0;entryDx=0;entryDy=0;strokeColor=default;align=center;verticalAlign=middle;fontFamily=Helvetica;fontSize=11;fontColor=default;labelBackgroundColor=default;endArrow=block;endFill=1;" parent="1" source="5hojF6ijiYVzlCGnurFn-4" target="5hojF6ijiYVzlCGnurFn-67" edge="1">
          <mxGeometry relative="1" as="geometry" />
        </mxCell>
        <mxCell id="5hojF6ijiYVzlCGnurFn-4" value="" style="rounded=0;whiteSpace=wrap;html=1;" parent="1" vertex="1">
          <mxGeometry x="-360" y="860" width="180" height="300" as="geometry" />
        </mxCell>
        <mxCell id="5hojF6ijiYVzlCGnurFn-5" value="Process" style="rounded=0;whiteSpace=wrap;html=1;" parent="1" vertex="1">
          <mxGeometry x="-180" y="860" width="70" height="30" as="geometry" />
        </mxCell>
        <mxCell id="5hojF6ijiYVzlCGnurFn-19" style="edgeStyle=none;shape=connector;rounded=0;orthogonalLoop=1;jettySize=auto;html=1;exitX=0.5;exitY=0;exitDx=0;exitDy=0;entryX=0.5;entryY=0;entryDx=0;entryDy=0;strokeColor=default;align=center;verticalAlign=middle;fontFamily=Helvetica;fontSize=11;fontColor=default;labelBackgroundColor=default;endArrow=block;endFill=1;" parent="1" source="5hojF6ijiYVzlCGnurFn-6" edge="1">
          <mxGeometry relative="1" as="geometry">
            <mxPoint x="-580" y="890" as="targetPoint" />
          </mxGeometry>
        </mxCell>
        <mxCell id="5hojF6ijiYVzlCGnurFn-20" style="edgeStyle=none;shape=connector;rounded=0;orthogonalLoop=1;jettySize=auto;html=1;exitX=0.5;exitY=0;exitDx=0;exitDy=0;entryX=0.5;entryY=0;entryDx=0;entryDy=0;strokeColor=default;align=center;verticalAlign=middle;fontFamily=Helvetica;fontSize=11;fontColor=default;labelBackgroundColor=default;endArrow=block;endFill=1;" parent="1" source="5hojF6ijiYVzlCGnurFn-6" edge="1">
          <mxGeometry relative="1" as="geometry">
            <mxPoint x="-580" y="890" as="targetPoint" />
          </mxGeometry>
        </mxCell>
        <mxCell id="5hojF6ijiYVzlCGnurFn-21" style="edgeStyle=none;shape=connector;rounded=0;orthogonalLoop=1;jettySize=auto;html=1;exitX=0.5;exitY=0;exitDx=0;exitDy=0;entryX=0.5;entryY=0;entryDx=0;entryDy=0;strokeColor=default;align=center;verticalAlign=middle;fontFamily=Helvetica;fontSize=11;fontColor=default;labelBackgroundColor=default;endArrow=block;endFill=1;" parent="1" source="5hojF6ijiYVzlCGnurFn-6" edge="1">
          <mxGeometry relative="1" as="geometry">
            <mxPoint x="-580" y="890" as="targetPoint" />
          </mxGeometry>
        </mxCell>
        <mxCell id="5hojF6ijiYVzlCGnurFn-94" style="edgeStyle=none;shape=connector;rounded=0;orthogonalLoop=1;jettySize=auto;html=1;exitX=0.5;exitY=1;exitDx=0;exitDy=0;entryX=0.5;entryY=0;entryDx=0;entryDy=0;strokeColor=default;align=center;verticalAlign=middle;fontFamily=Helvetica;fontSize=11;fontColor=default;labelBackgroundColor=default;endArrow=block;endFill=1;" parent="1" source="5hojF6ijiYVzlCGnurFn-6" target="5hojF6ijiYVzlCGnurFn-69" edge="1">
          <mxGeometry relative="1" as="geometry" />
        </mxCell>
        <mxCell id="5hojF6ijiYVzlCGnurFn-6" value="" style="rounded=0;whiteSpace=wrap;html=1;" parent="1" vertex="1">
          <mxGeometry x="-670" y="860" width="180" height="300" as="geometry" />
        </mxCell>
        <mxCell id="5hojF6ijiYVzlCGnurFn-7" value="Generate" style="rounded=0;whiteSpace=wrap;html=1;" parent="1" vertex="1">
          <mxGeometry x="-490" y="860" width="70" height="30" as="geometry" />
        </mxCell>
        <mxCell id="5hojF6ijiYVzlCGnurFn-8" value="config.json" style="shape=note;size=20;whiteSpace=wrap;html=1;strokeWidth=2;" parent="1" vertex="1">
          <mxGeometry x="-310" y="580" width="80" height="100" as="geometry" />
        </mxCell>
        <mxCell id="5hojF6ijiYVzlCGnurFn-14" style="rounded=0;orthogonalLoop=1;jettySize=auto;html=1;exitX=0.5;exitY=1;exitDx=0;exitDy=0;entryX=0.5;entryY=0;entryDx=0;entryDy=0;endArrow=blockThin;endFill=1;" parent="1" source="5hojF6ijiYVzlCGnurFn-9" target="5hojF6ijiYVzlCGnurFn-6" edge="1">
          <mxGeometry relative="1" as="geometry" />
        </mxCell>
        <mxCell id="5hojF6ijiYVzlCGnurFn-15" style="edgeStyle=none;shape=connector;rounded=0;orthogonalLoop=1;jettySize=auto;html=1;exitX=0.5;exitY=1;exitDx=0;exitDy=0;entryX=0.5;entryY=0;entryDx=0;entryDy=0;strokeColor=default;align=center;verticalAlign=middle;fontFamily=Helvetica;fontSize=11;fontColor=default;labelBackgroundColor=default;endArrow=blockThin;endFill=1;" parent="1" source="5hojF6ijiYVzlCGnurFn-9" target="5hojF6ijiYVzlCGnurFn-4" edge="1">
          <mxGeometry relative="1" as="geometry" />
        </mxCell>
        <mxCell id="5hojF6ijiYVzlCGnurFn-16" style="edgeStyle=none;shape=connector;rounded=0;orthogonalLoop=1;jettySize=auto;html=1;exitX=0.5;exitY=1;exitDx=0;exitDy=0;entryX=0.5;entryY=0;entryDx=0;entryDy=0;strokeColor=default;align=center;verticalAlign=middle;fontFamily=Helvetica;fontSize=11;fontColor=default;labelBackgroundColor=default;endArrow=blockThin;endFill=1;" parent="1" source="5hojF6ijiYVzlCGnurFn-9" target="5hojF6ijiYVzlCGnurFn-1" edge="1">
          <mxGeometry relative="1" as="geometry" />
        </mxCell>
        <mxCell id="5hojF6ijiYVzlCGnurFn-9" value="Parser" style="rounded=0;whiteSpace=wrap;html=1;" parent="1" vertex="1">
          <mxGeometry x="-330" y="740" width="120" height="60" as="geometry" />
        </mxCell>
        <mxCell id="5hojF6ijiYVzlCGnurFn-10" value="" style="endArrow=blockThin;html=1;rounded=0;endFill=1;" parent="1" edge="1">
          <mxGeometry width="50" height="50" relative="1" as="geometry">
            <mxPoint x="-270.24" y="685" as="sourcePoint" />
            <mxPoint x="-269.95" y="735" as="targetPoint" />
          </mxGeometry>
        </mxCell>
        <mxCell id="5hojF6ijiYVzlCGnurFn-3" value="Store" style="rounded=0;whiteSpace=wrap;html=1;" parent="1" vertex="1">
          <mxGeometry x="130" y="860" width="70" height="30" as="geometry" />
        </mxCell>
        <mxCell id="5hojF6ijiYVzlCGnurFn-22" value="" style="endArrow=blockThin;html=1;rounded=0;strokeColor=default;align=center;verticalAlign=middle;fontFamily=Helvetica;fontSize=11;fontColor=default;labelBackgroundColor=default;endFill=1;" parent="1" edge="1">
          <mxGeometry width="50" height="50" relative="1" as="geometry">
            <mxPoint x="-580.11" y="860" as="sourcePoint" />
            <mxPoint x="-580.11" y="890" as="targetPoint" />
          </mxGeometry>
        </mxCell>
        <mxCell id="5hojF6ijiYVzlCGnurFn-26" value="" style="endArrow=blockThin;html=1;rounded=0;strokeColor=default;align=center;verticalAlign=middle;fontFamily=Helvetica;fontSize=11;fontColor=default;labelBackgroundColor=default;endFill=1;" parent="1" edge="1">
          <mxGeometry width="50" height="50" relative="1" as="geometry">
            <mxPoint x="-270.11" y="860" as="sourcePoint" />
            <mxPoint x="-270.11" y="890" as="targetPoint" />
          </mxGeometry>
        </mxCell>
        <mxCell id="5hojF6ijiYVzlCGnurFn-27" value="Start" style="rounded=0;whiteSpace=wrap;html=1;fontFamily=Helvetica;fontSize=11;fontColor=default;labelBackgroundColor=default;" parent="1" vertex="1">
          <mxGeometry x="10" y="890" width="60" height="30" as="geometry" />
        </mxCell>
        <mxCell id="5hojF6ijiYVzlCGnurFn-28" value="" style="endArrow=blockThin;html=1;rounded=0;strokeColor=default;align=center;verticalAlign=middle;fontFamily=Helvetica;fontSize=11;fontColor=default;labelBackgroundColor=default;endFill=1;" parent="1" edge="1">
          <mxGeometry width="50" height="50" relative="1" as="geometry">
            <mxPoint x="39.889999999999986" y="860" as="sourcePoint" />
            <mxPoint x="39.889999999999986" y="890" as="targetPoint" />
          </mxGeometry>
        </mxCell>
        <mxCell id="5hojF6ijiYVzlCGnurFn-29" value="Start" style="rounded=0;whiteSpace=wrap;html=1;fontFamily=Helvetica;fontSize=11;fontColor=default;labelBackgroundColor=default;" parent="1" vertex="1">
          <mxGeometry x="-300" y="890" width="60" height="30" as="geometry" />
        </mxCell>
        <mxCell id="5hojF6ijiYVzlCGnurFn-30" value="Start" style="rounded=0;whiteSpace=wrap;html=1;fontFamily=Helvetica;fontSize=11;fontColor=default;labelBackgroundColor=default;" parent="1" vertex="1">
          <mxGeometry x="-610" y="890" width="60" height="30" as="geometry" />
        </mxCell>
        <mxCell id="5hojF6ijiYVzlCGnurFn-33" value="" style="rounded=0;whiteSpace=wrap;html=1;fontFamily=Helvetica;fontSize=11;fontColor=default;labelBackgroundColor=default;" parent="1" vertex="1">
          <mxGeometry x="-648.75" y="1000" width="115" height="130" as="geometry" />
        </mxCell>
        <mxCell id="5hojF6ijiYVzlCGnurFn-32" value="" style="rounded=0;whiteSpace=wrap;html=1;fontFamily=Helvetica;fontSize=11;fontColor=default;labelBackgroundColor=default;" parent="1" vertex="1">
          <mxGeometry x="-637.5" y="1010" width="115" height="130" as="geometry" />
        </mxCell>
        <mxCell id="5hojF6ijiYVzlCGnurFn-34" value="Nodes" style="rounded=0;whiteSpace=wrap;html=1;fontFamily=Helvetica;fontSize=11;fontColor=default;labelBackgroundColor=default;" parent="1" vertex="1">
          <mxGeometry x="-626.25" y="1020" width="115" height="130" as="geometry" />
        </mxCell>
        <mxCell id="5hojF6ijiYVzlCGnurFn-35" value="" style="rounded=0;whiteSpace=wrap;html=1;fontFamily=Helvetica;fontSize=11;fontColor=default;labelBackgroundColor=default;" parent="1" vertex="1">
          <mxGeometry x="-338.75" y="1000" width="115" height="130" as="geometry" />
        </mxCell>
        <mxCell id="5hojF6ijiYVzlCGnurFn-36" value="" style="rounded=0;whiteSpace=wrap;html=1;fontFamily=Helvetica;fontSize=11;fontColor=default;labelBackgroundColor=default;" parent="1" vertex="1">
          <mxGeometry x="-327.5" y="1010" width="115" height="130" as="geometry" />
        </mxCell>
        <mxCell id="5hojF6ijiYVzlCGnurFn-37" value="Nodes" style="rounded=0;whiteSpace=wrap;html=1;fontFamily=Helvetica;fontSize=11;fontColor=default;labelBackgroundColor=default;" parent="1" vertex="1">
          <mxGeometry x="-316.25" y="1020" width="115" height="130" as="geometry" />
        </mxCell>
        <mxCell id="5hojF6ijiYVzlCGnurFn-38" value="" style="rounded=0;whiteSpace=wrap;html=1;fontFamily=Helvetica;fontSize=11;fontColor=default;labelBackgroundColor=default;" parent="1" vertex="1">
          <mxGeometry x="-28.75" y="1000" width="115" height="130" as="geometry" />
        </mxCell>
        <mxCell id="5hojF6ijiYVzlCGnurFn-39" value="" style="rounded=0;whiteSpace=wrap;html=1;fontFamily=Helvetica;fontSize=11;fontColor=default;labelBackgroundColor=default;" parent="1" vertex="1">
          <mxGeometry x="-17.5" y="1010" width="115" height="130" as="geometry" />
        </mxCell>
        <mxCell id="5hojF6ijiYVzlCGnurFn-40" value="Nodes" style="rounded=0;whiteSpace=wrap;html=1;fontFamily=Helvetica;fontSize=11;fontColor=default;labelBackgroundColor=default;" parent="1" vertex="1">
          <mxGeometry x="-6.25" y="1020" width="115" height="130" as="geometry" />
        </mxCell>
        <mxCell id="5hojF6ijiYVzlCGnurFn-41" value="" style="endArrow=blockThin;html=1;rounded=0;strokeColor=default;align=center;verticalAlign=middle;fontFamily=Helvetica;fontSize=11;fontColor=default;labelBackgroundColor=default;endFill=0;entryX=0.5;entryY=0;entryDx=0;entryDy=0;dashed=1;dashPattern=1 1;exitX=0.5;exitY=1;exitDx=0;exitDy=0;" parent="1" source="5hojF6ijiYVzlCGnurFn-30" target="5hojF6ijiYVzlCGnurFn-33" edge="1">
          <mxGeometry width="50" height="50" relative="1" as="geometry">
            <mxPoint x="-581.42" y="920" as="sourcePoint" />
            <mxPoint x="-581.42" y="950" as="targetPoint" />
          </mxGeometry>
        </mxCell>
        <mxCell id="5hojF6ijiYVzlCGnurFn-42" value="" style="endArrow=blockThin;html=1;rounded=0;strokeColor=default;align=center;verticalAlign=middle;fontFamily=Helvetica;fontSize=11;fontColor=default;labelBackgroundColor=default;endFill=0;entryX=0.5;entryY=0;entryDx=0;entryDy=0;exitX=0.5;exitY=1;exitDx=0;exitDy=0;dashed=1;dashPattern=1 1;" parent="1" source="5hojF6ijiYVzlCGnurFn-30" target="5hojF6ijiYVzlCGnurFn-32" edge="1">
          <mxGeometry width="50" height="50" relative="1" as="geometry">
            <mxPoint x="-571.42" y="930" as="sourcePoint" />
            <mxPoint x="-581" y="1010" as="targetPoint" />
          </mxGeometry>
        </mxCell>
        <mxCell id="5hojF6ijiYVzlCGnurFn-43" value="" style="endArrow=blockThin;html=1;rounded=0;strokeColor=default;align=center;verticalAlign=middle;fontFamily=Helvetica;fontSize=11;fontColor=default;labelBackgroundColor=default;endFill=0;entryX=0.5;entryY=0;entryDx=0;entryDy=0;exitX=0.5;exitY=1;exitDx=0;exitDy=0;dashed=1;dashPattern=1 1;" parent="1" source="5hojF6ijiYVzlCGnurFn-30" target="5hojF6ijiYVzlCGnurFn-34" edge="1">
          <mxGeometry width="50" height="50" relative="1" as="geometry">
            <mxPoint x="-570" y="930" as="sourcePoint" />
            <mxPoint x="-571" y="1020" as="targetPoint" />
          </mxGeometry>
        </mxCell>
        <mxCell id="5hojF6ijiYVzlCGnurFn-48" value="" style="endArrow=blockThin;html=1;rounded=0;strokeColor=default;align=center;verticalAlign=middle;fontFamily=Helvetica;fontSize=11;fontColor=default;labelBackgroundColor=default;endFill=0;entryX=0.5;entryY=0;entryDx=0;entryDy=0;dashed=1;dashPattern=1 1;exitX=0.5;exitY=1;exitDx=0;exitDy=0;" parent="1" edge="1">
          <mxGeometry width="50" height="50" relative="1" as="geometry">
            <mxPoint x="-270" y="920" as="sourcePoint" />
            <mxPoint x="-281" y="1000" as="targetPoint" />
          </mxGeometry>
        </mxCell>
        <mxCell id="5hojF6ijiYVzlCGnurFn-49" value="" style="endArrow=blockThin;html=1;rounded=0;strokeColor=default;align=center;verticalAlign=middle;fontFamily=Helvetica;fontSize=11;fontColor=default;labelBackgroundColor=default;endFill=0;entryX=0.5;entryY=0;entryDx=0;entryDy=0;exitX=0.5;exitY=1;exitDx=0;exitDy=0;dashed=1;dashPattern=1 1;" parent="1" edge="1">
          <mxGeometry width="50" height="50" relative="1" as="geometry">
            <mxPoint x="-270" y="920" as="sourcePoint" />
            <mxPoint x="-271" y="1010" as="targetPoint" />
          </mxGeometry>
        </mxCell>
        <mxCell id="5hojF6ijiYVzlCGnurFn-50" value="" style="endArrow=blockThin;html=1;rounded=0;strokeColor=default;align=center;verticalAlign=middle;fontFamily=Helvetica;fontSize=11;fontColor=default;labelBackgroundColor=default;endFill=0;entryX=0.5;entryY=0;entryDx=0;entryDy=0;exitX=0.5;exitY=1;exitDx=0;exitDy=0;dashed=1;dashPattern=1 1;" parent="1" edge="1">
          <mxGeometry width="50" height="50" relative="1" as="geometry">
            <mxPoint x="-270" y="920" as="sourcePoint" />
            <mxPoint x="-259" y="1020" as="targetPoint" />
          </mxGeometry>
        </mxCell>
        <mxCell id="5hojF6ijiYVzlCGnurFn-54" value="" style="endArrow=blockThin;html=1;rounded=0;strokeColor=default;align=center;verticalAlign=middle;fontFamily=Helvetica;fontSize=11;fontColor=default;labelBackgroundColor=default;endFill=0;entryX=0.5;entryY=0;entryDx=0;entryDy=0;dashed=1;dashPattern=1 1;exitX=0.5;exitY=1;exitDx=0;exitDy=0;" parent="1" edge="1">
          <mxGeometry width="50" height="50" relative="1" as="geometry">
            <mxPoint x="40" y="920" as="sourcePoint" />
            <mxPoint x="29" y="1000" as="targetPoint" />
          </mxGeometry>
        </mxCell>
        <mxCell id="5hojF6ijiYVzlCGnurFn-55" value="" style="endArrow=blockThin;html=1;rounded=0;strokeColor=default;align=center;verticalAlign=middle;fontFamily=Helvetica;fontSize=11;fontColor=default;labelBackgroundColor=default;endFill=0;entryX=0.5;entryY=0;entryDx=0;entryDy=0;exitX=0.5;exitY=1;exitDx=0;exitDy=0;dashed=1;dashPattern=1 1;" parent="1" edge="1">
          <mxGeometry width="50" height="50" relative="1" as="geometry">
            <mxPoint x="40" y="920" as="sourcePoint" />
            <mxPoint x="39" y="1010" as="targetPoint" />
          </mxGeometry>
        </mxCell>
        <mxCell id="5hojF6ijiYVzlCGnurFn-56" value="" style="endArrow=blockThin;html=1;rounded=0;strokeColor=default;align=center;verticalAlign=middle;fontFamily=Helvetica;fontSize=11;fontColor=default;labelBackgroundColor=default;endFill=0;entryX=0.5;entryY=0;entryDx=0;entryDy=0;exitX=0.5;exitY=1;exitDx=0;exitDy=0;dashed=1;dashPattern=1 1;" parent="1" edge="1">
          <mxGeometry width="50" height="50" relative="1" as="geometry">
            <mxPoint x="40" y="920" as="sourcePoint" />
            <mxPoint x="51" y="1020" as="targetPoint" />
          </mxGeometry>
        </mxCell>
        <mxCell id="5hojF6ijiYVzlCGnurFn-58" value="Spawn&lt;div&gt;Threads&lt;/div&gt;" style="text;html=1;align=center;verticalAlign=middle;whiteSpace=wrap;rounded=0;fontFamily=Helvetica;fontSize=11;fontColor=default;labelBackgroundColor=default;" parent="1" vertex="1">
          <mxGeometry x="-571.25" y="935" width="60" height="30" as="geometry" />
        </mxCell>
        <mxCell id="5hojF6ijiYVzlCGnurFn-59" value="Spawn&lt;div&gt;Threads&lt;/div&gt;" style="text;html=1;align=center;verticalAlign=middle;whiteSpace=wrap;rounded=0;fontFamily=Helvetica;fontSize=11;fontColor=default;labelBackgroundColor=default;" parent="1" vertex="1">
          <mxGeometry x="-261.25" y="935" width="60" height="30" as="geometry" />
        </mxCell>
        <mxCell id="5hojF6ijiYVzlCGnurFn-60" value="Spawn&lt;div&gt;Threads&lt;/div&gt;" style="text;html=1;align=center;verticalAlign=middle;whiteSpace=wrap;rounded=0;fontFamily=Helvetica;fontSize=11;fontColor=default;labelBackgroundColor=default;" parent="1" vertex="1">
          <mxGeometry x="48.75" y="935" width="60" height="30" as="geometry" />
        </mxCell>
        <mxCell id="5hojF6ijiYVzlCGnurFn-65" value="" style="rounded=0;whiteSpace=wrap;html=1;" parent="1" vertex="1">
          <mxGeometry x="-20.5" y="1409" width="120" height="100" as="geometry" />
        </mxCell>
        <mxCell id="5hojF6ijiYVzlCGnurFn-66" value="" style="rounded=0;whiteSpace=wrap;html=1;" parent="1" vertex="1">
          <mxGeometry x="-330.5" y="1319" width="120" height="280" as="geometry" />
        </mxCell>
        <mxCell id="5hojF6ijiYVzlCGnurFn-67" value="Process" style="rounded=0;whiteSpace=wrap;html=1;" parent="1" vertex="1">
          <mxGeometry x="-305.5" y="1289" width="70" height="30" as="geometry" />
        </mxCell>
        <mxCell id="5hojF6ijiYVzlCGnurFn-68" value="" style="rounded=0;whiteSpace=wrap;html=1;" parent="1" vertex="1">
          <mxGeometry x="-640.5" y="1319" width="120" height="280" as="geometry" />
        </mxCell>
        <mxCell id="5hojF6ijiYVzlCGnurFn-69" value="Generate" style="rounded=0;whiteSpace=wrap;html=1;" parent="1" vertex="1">
          <mxGeometry x="-615.5" y="1289" width="70" height="30" as="geometry" />
        </mxCell>
        <mxCell id="5hojF6ijiYVzlCGnurFn-70" value="Store" style="rounded=0;whiteSpace=wrap;html=1;" parent="1" vertex="1">
          <mxGeometry x="4.5" y="1379" width="70" height="30" as="geometry" />
        </mxCell>
        <mxCell id="5hojF6ijiYVzlCGnurFn-72" value="Node" style="rounded=0;whiteSpace=wrap;html=1;fontFamily=Helvetica;fontSize=11;fontColor=default;labelBackgroundColor=default;" parent="1" vertex="1">
          <mxGeometry x="-620.25" y="1329" width="79.5" height="80" as="geometry" />
        </mxCell>
        <mxCell id="5hojF6ijiYVzlCGnurFn-74" value="Node" style="rounded=0;whiteSpace=wrap;html=1;fontFamily=Helvetica;fontSize=11;fontColor=default;labelBackgroundColor=default;" parent="1" vertex="1">
          <mxGeometry x="-620.25" y="1509" width="79.5" height="80" as="geometry" />
        </mxCell>
        <mxCell id="5hojF6ijiYVzlCGnurFn-75" value="" style="endArrow=none;dashed=1;html=1;dashPattern=1 3;strokeWidth=2;rounded=0;strokeColor=default;align=center;verticalAlign=middle;fontFamily=Helvetica;fontSize=11;fontColor=default;labelBackgroundColor=default;" parent="1" edge="1">
          <mxGeometry width="50" height="50" relative="1" as="geometry">
            <mxPoint x="-580.67" y="1499" as="sourcePoint" />
            <mxPoint x="-580.67" y="1419" as="targetPoint" />
          </mxGeometry>
        </mxCell>
        <mxCell id="5hojF6ijiYVzlCGnurFn-76" value="Node" style="rounded=0;whiteSpace=wrap;html=1;fontFamily=Helvetica;fontSize=11;fontColor=default;labelBackgroundColor=default;" parent="1" vertex="1">
          <mxGeometry x="-310.25" y="1329" width="79.5" height="80" as="geometry" />
        </mxCell>
        <mxCell id="5hojF6ijiYVzlCGnurFn-77" value="Node" style="rounded=0;whiteSpace=wrap;html=1;fontFamily=Helvetica;fontSize=11;fontColor=default;labelBackgroundColor=default;" parent="1" vertex="1">
          <mxGeometry x="-310.25" y="1509" width="79.5" height="80" as="geometry" />
        </mxCell>
        <mxCell id="5hojF6ijiYVzlCGnurFn-78" value="" style="endArrow=none;dashed=1;html=1;dashPattern=1 3;strokeWidth=2;rounded=0;strokeColor=default;align=center;verticalAlign=middle;fontFamily=Helvetica;fontSize=11;fontColor=default;labelBackgroundColor=default;" parent="1" edge="1">
          <mxGeometry width="50" height="50" relative="1" as="geometry">
            <mxPoint x="-270.66999999999996" y="1499" as="sourcePoint" />
            <mxPoint x="-270.66999999999996" y="1419" as="targetPoint" />
          </mxGeometry>
        </mxCell>
        <mxCell id="5hojF6ijiYVzlCGnurFn-79" value="Node" style="rounded=0;whiteSpace=wrap;html=1;fontFamily=Helvetica;fontSize=11;fontColor=default;labelBackgroundColor=default;" parent="1" vertex="1">
          <mxGeometry x="-0.5" y="1419" width="79.5" height="80" as="geometry" />
        </mxCell>
        <mxCell id="5hojF6ijiYVzlCGnurFn-80" value="" style="endArrow=blockThin;html=1;rounded=0;strokeColor=default;align=center;verticalAlign=middle;fontFamily=Helvetica;fontSize=11;fontColor=default;labelBackgroundColor=default;exitX=1;exitY=0.5;exitDx=0;exitDy=0;entryX=0;entryY=0.5;entryDx=0;entryDy=0;endFill=1;" parent="1" source="5hojF6ijiYVzlCGnurFn-72" target="5hojF6ijiYVzlCGnurFn-77" edge="1">
          <mxGeometry width="50" height="50" relative="1" as="geometry">
            <mxPoint x="-488" y="1379" as="sourcePoint" />
            <mxPoint x="-438" y="1329" as="targetPoint" />
          </mxGeometry>
        </mxCell>
        <mxCell id="5hojF6ijiYVzlCGnurFn-81" value="" style="endArrow=blockThin;html=1;rounded=0;strokeColor=default;align=center;verticalAlign=middle;fontFamily=Helvetica;fontSize=11;fontColor=default;labelBackgroundColor=default;exitX=1;exitY=0.5;exitDx=0;exitDy=0;entryX=0;entryY=0.5;entryDx=0;entryDy=0;endFill=1;" parent="1" source="5hojF6ijiYVzlCGnurFn-72" target="5hojF6ijiYVzlCGnurFn-76" edge="1">
          <mxGeometry width="50" height="50" relative="1" as="geometry">
            <mxPoint x="-528" y="1379" as="sourcePoint" />
            <mxPoint x="-298" y="1559" as="targetPoint" />
          </mxGeometry>
        </mxCell>
        <mxCell id="5hojF6ijiYVzlCGnurFn-82" value="" style="endArrow=blockThin;html=1;rounded=0;strokeColor=default;align=center;verticalAlign=middle;fontFamily=Helvetica;fontSize=11;fontColor=default;labelBackgroundColor=default;exitX=1;exitY=0.5;exitDx=0;exitDy=0;endFill=0;dashed=1;dashPattern=1 1;" parent="1" source="5hojF6ijiYVzlCGnurFn-72" edge="1">
          <mxGeometry width="50" height="50" relative="1" as="geometry">
            <mxPoint x="-528" y="1379" as="sourcePoint" />
            <mxPoint x="-311" y="1459" as="targetPoint" />
          </mxGeometry>
        </mxCell>
        <mxCell id="5hojF6ijiYVzlCGnurFn-83" value="" style="endArrow=blockThin;html=1;rounded=0;strokeColor=default;align=center;verticalAlign=middle;fontFamily=Helvetica;fontSize=11;fontColor=default;labelBackgroundColor=default;exitX=1;exitY=0.5;exitDx=0;exitDy=0;entryX=0;entryY=0.5;entryDx=0;entryDy=0;endFill=1;" parent="1" source="5hojF6ijiYVzlCGnurFn-74" target="5hojF6ijiYVzlCGnurFn-76" edge="1">
          <mxGeometry width="50" height="50" relative="1" as="geometry">
            <mxPoint x="-528" y="1379" as="sourcePoint" />
            <mxPoint x="-298" y="1379" as="targetPoint" />
          </mxGeometry>
        </mxCell>
        <mxCell id="5hojF6ijiYVzlCGnurFn-84" value="" style="endArrow=blockThin;html=1;rounded=0;strokeColor=default;align=center;verticalAlign=middle;fontFamily=Helvetica;fontSize=11;fontColor=default;labelBackgroundColor=default;exitX=1;exitY=0.5;exitDx=0;exitDy=0;entryX=0;entryY=0.5;entryDx=0;entryDy=0;endFill=1;" parent="1" source="5hojF6ijiYVzlCGnurFn-74" target="5hojF6ijiYVzlCGnurFn-77" edge="1">
          <mxGeometry width="50" height="50" relative="1" as="geometry">
            <mxPoint x="-528" y="1559" as="sourcePoint" />
            <mxPoint x="-298" y="1379" as="targetPoint" />
          </mxGeometry>
        </mxCell>
        <mxCell id="5hojF6ijiYVzlCGnurFn-85" value="" style="endArrow=blockThin;html=1;rounded=0;strokeColor=default;align=center;verticalAlign=middle;fontFamily=Helvetica;fontSize=11;fontColor=default;labelBackgroundColor=default;exitX=1;exitY=0.5;exitDx=0;exitDy=0;endFill=0;dashed=1;dashPattern=1 1;" parent="1" source="5hojF6ijiYVzlCGnurFn-74" edge="1">
          <mxGeometry width="50" height="50" relative="1" as="geometry">
            <mxPoint x="-528" y="1379" as="sourcePoint" />
            <mxPoint x="-311" y="1459" as="targetPoint" />
          </mxGeometry>
        </mxCell>
        <mxCell id="5hojF6ijiYVzlCGnurFn-86" value="" style="endArrow=blockThin;html=1;rounded=0;strokeColor=default;align=center;verticalAlign=middle;fontFamily=Helvetica;fontSize=11;fontColor=default;labelBackgroundColor=default;exitX=1;exitY=0.5;exitDx=0;exitDy=0;endFill=0;dashed=1;dashPattern=1 1;" parent="1" edge="1">
          <mxGeometry width="50" height="50" relative="1" as="geometry">
            <mxPoint x="-538.25" y="1458.76" as="sourcePoint" />
            <mxPoint x="-311" y="1459" as="targetPoint" />
          </mxGeometry>
        </mxCell>
        <mxCell id="5hojF6ijiYVzlCGnurFn-89" value="" style="endArrow=blockThin;html=1;rounded=0;strokeColor=default;align=center;verticalAlign=middle;fontFamily=Helvetica;fontSize=11;fontColor=default;labelBackgroundColor=default;exitX=1;exitY=0.5;exitDx=0;exitDy=0;endFill=0;dashed=1;dashPattern=1 1;entryX=0;entryY=0.5;entryDx=0;entryDy=0;" parent="1" target="5hojF6ijiYVzlCGnurFn-76" edge="1">
          <mxGeometry width="50" height="50" relative="1" as="geometry">
            <mxPoint x="-538.25" y="1458.8799999999999" as="sourcePoint" />
            <mxPoint x="-311" y="1459.12" as="targetPoint" />
          </mxGeometry>
        </mxCell>
        <mxCell id="5hojF6ijiYVzlCGnurFn-90" value="" style="endArrow=blockThin;html=1;rounded=0;strokeColor=default;align=center;verticalAlign=middle;fontFamily=Helvetica;fontSize=11;fontColor=default;labelBackgroundColor=default;exitX=1;exitY=0.5;exitDx=0;exitDy=0;endFill=0;dashed=1;dashPattern=1 1;entryX=0;entryY=0.5;entryDx=0;entryDy=0;" parent="1" target="5hojF6ijiYVzlCGnurFn-77" edge="1">
          <mxGeometry width="50" height="50" relative="1" as="geometry">
            <mxPoint x="-538.25" y="1458.8799999999999" as="sourcePoint" />
            <mxPoint x="-311" y="1459.12" as="targetPoint" />
          </mxGeometry>
        </mxCell>
        <mxCell id="5hojF6ijiYVzlCGnurFn-91" value="" style="endArrow=blockThin;html=1;rounded=0;strokeColor=default;align=center;verticalAlign=middle;fontFamily=Helvetica;fontSize=11;fontColor=default;labelBackgroundColor=default;exitX=1;exitY=0.5;exitDx=0;exitDy=0;endFill=0;dashed=1;dashPattern=1 1;" parent="1" edge="1">
          <mxGeometry width="50" height="50" relative="1" as="geometry">
            <mxPoint x="-228.25" y="1458.71" as="sourcePoint" />
            <mxPoint x="-1" y="1458.95" as="targetPoint" />
          </mxGeometry>
        </mxCell>
        <mxCell id="5hojF6ijiYVzlCGnurFn-92" value="" style="endArrow=blockThin;html=1;rounded=0;strokeColor=default;align=center;verticalAlign=middle;fontFamily=Helvetica;fontSize=11;fontColor=default;labelBackgroundColor=default;exitX=1;exitY=0.5;exitDx=0;exitDy=0;entryX=0;entryY=0.5;entryDx=0;entryDy=0;endFill=1;" parent="1" target="5hojF6ijiYVzlCGnurFn-79" edge="1">
          <mxGeometry width="50" height="50" relative="1" as="geometry">
            <mxPoint x="-228" y="1368.83" as="sourcePoint" />
            <mxPoint x="2" y="1368.83" as="targetPoint" />
          </mxGeometry>
        </mxCell>
        <mxCell id="5hojF6ijiYVzlCGnurFn-93" value="" style="endArrow=blockThin;html=1;rounded=0;strokeColor=default;align=center;verticalAlign=middle;fontFamily=Helvetica;fontSize=11;fontColor=default;labelBackgroundColor=default;exitX=1;exitY=0.5;exitDx=0;exitDy=0;entryX=0;entryY=0.5;entryDx=0;entryDy=0;endFill=1;" parent="1" target="5hojF6ijiYVzlCGnurFn-79" edge="1">
          <mxGeometry width="50" height="50" relative="1" as="geometry">
            <mxPoint x="-228.5" y="1549" as="sourcePoint" />
            <mxPoint x="-0.5" y="1639.17" as="targetPoint" />
          </mxGeometry>
        </mxCell>
        <mxCell id="5hojF6ijiYVzlCGnurFn-99" value="Raw data" style="text;html=1;align=center;verticalAlign=middle;whiteSpace=wrap;rounded=0;fontFamily=Helvetica;fontSize=11;fontColor=default;labelBackgroundColor=default;" parent="1" vertex="1">
          <mxGeometry x="-450" y="1329" width="60" height="30" as="geometry" />
        </mxCell>
        <mxCell id="5hojF6ijiYVzlCGnurFn-100" value="Processed Data" style="text;html=1;align=center;verticalAlign=middle;whiteSpace=wrap;rounded=0;fontFamily=Helvetica;fontSize=11;fontColor=default;labelBackgroundColor=default;" parent="1" vertex="1">
          <mxGeometry x="-150" y="1329" width="100" height="30" as="geometry" />
        </mxCell>
        <mxCell id="c4Q6ejR8Lprv42_kmNAS-2" value="" style="rounded=0;whiteSpace=wrap;html=1;" parent="1" vertex="1">
          <mxGeometry x="470" y="700" width="560" height="610" as="geometry" />
        </mxCell>
        <mxCell id="c4Q6ejR8Lprv42_kmNAS-3" value="Process" style="rounded=0;whiteSpace=wrap;html=1;" parent="1" vertex="1">
          <mxGeometry x="1030" y="700" width="70" height="30" as="geometry" />
        </mxCell>
        <mxCell id="c4Q6ejR8Lprv42_kmNAS-4" value="" style="endArrow=blockThin;html=1;rounded=0;endFill=1;dashed=1;entryX=0.5;entryY=0;entryDx=0;entryDy=0;" parent="1" target="c4Q6ejR8Lprv42_kmNAS-2" edge="1">
          <mxGeometry width="50" height="50" relative="1" as="geometry">
            <mxPoint x="750" y="620" as="sourcePoint" />
            <mxPoint x="830" y="600" as="targetPoint" />
          </mxGeometry>
        </mxCell>
        <mxCell id="c4Q6ejR8Lprv42_kmNAS-5" value="Config" style="text;html=1;align=center;verticalAlign=middle;whiteSpace=wrap;rounded=0;" parent="1" vertex="1">
          <mxGeometry x="720" y="590" width="60" height="30" as="geometry" />
        </mxCell>
        <mxCell id="c4Q6ejR8Lprv42_kmNAS-7" value="Start" style="rounded=0;whiteSpace=wrap;html=1;fontFamily=Helvetica;fontSize=11;fontColor=default;labelBackgroundColor=default;" parent="1" vertex="1">
          <mxGeometry x="720" y="730" width="60" height="30" as="geometry" />
        </mxCell>
        <mxCell id="c4Q6ejR8Lprv42_kmNAS-9" value="" style="endArrow=blockThin;html=1;rounded=0;endFill=1;entryX=0.5;entryY=0;entryDx=0;entryDy=0;exitX=0.5;exitY=0;exitDx=0;exitDy=0;" parent="1" source="c4Q6ejR8Lprv42_kmNAS-2" target="c4Q6ejR8Lprv42_kmNAS-7" edge="1">
          <mxGeometry width="50" height="50" relative="1" as="geometry">
            <mxPoint x="760" y="630" as="sourcePoint" />
            <mxPoint x="760" y="710" as="targetPoint" />
          </mxGeometry>
        </mxCell>
        <mxCell id="c4Q6ejR8Lprv42_kmNAS-10" value="{&lt;div&gt;&lt;span style=&quot;white-space: pre;&quot;&gt;&#x9;&lt;/span&gt;&quot;name&quot; : &quot;&quot;,&lt;br&gt;&lt;/div&gt;&lt;div&gt;&lt;span style=&quot;white-space: pre;&quot;&gt;&#x9;&lt;/span&gt;&quot;initialisation_script&quot; : &quot;&quot;&lt;br&gt;&lt;/div&gt;&lt;div&gt;}&lt;/div&gt;" style="text;html=1;align=left;verticalAlign=middle;whiteSpace=wrap;rounded=0;fontFamily=Helvetica;fontSize=11;fontColor=default;labelBackgroundColor=none;" parent="1" vertex="1">
          <mxGeometry x="900" y="330" width="440" height="220" as="geometry" />
        </mxCell>
      </root>
    </mxGraphModel>
  </diagram>
</mxfile>
